<?xml version="1.0" encoding="UTF-8"?>
<svg id="b" data-name="Ebene 2" xmlns="http://www.w3.org/2000/svg" viewBox="0 0 169.21 169.25">
  <defs>
    <style>
      .d {
        font-family: Sora-Regular, Sora;
        font-size: 20px;
      }
    </style>
  </defs>
  <g id="c" data-name="Ebene 1">
    <text class="d" transform="translate(45.48 63.88) rotate(-51.61)"><tspan x="0" y="0">D</tspan></text>
    <text class="d" transform="translate(54.73 52.27) rotate(-33.77)"><tspan x="0" y="0">o</tspan></text>
    <text class="d" transform="translate(65.24 45.15) rotate(-17.63)"><tspan x="0" y="0">n</tspan></text>
    <text class="d" transform="translate(76.74 41.8) rotate(-7.01)"><tspan x="0" y="0">‘</tspan></text>
    <text class="d" transform="translate(81.25 41.09) rotate(1.36)"><tspan x="0" y="0">t</tspan></text>
    <text class="d" transform="translate(89.3 41.39) rotate(9.32)"><tspan x="0" y="0"> </tspan></text>
    <text class="d" transform="translate(93.33 40.83) rotate(24.8)"><tspan x="0" y="0">W</tspan></text>
    <text class="d" transform="translate(110.66 49.26) rotate(45.33)"><tspan x="0" y="0">o</tspan></text>
    <text class="d" transform="translate(119.46 58.47) rotate(58.45)"><tspan x="0" y="0">r</tspan></text>
    <text class="d" transform="translate(123.5 64.96) rotate(68.5)"><tspan x="0" y="0">r</tspan></text>
    <text class="d" transform="translate(126.55 72.22) rotate(80.69)"><tspan x="0" y="0">y</tspan></text>
    <text class="d" transform="translate(128.02 82.49) rotate(90.16)"><tspan x="0" y="0"> </tspan></text>
    <text class="d" transform="translate(128.27 86.58) rotate(99.19)"><tspan x="0" y="0">–</tspan></text>
    <text class="d" transform="translate(126.54 96.12) rotate(108.17)"><tspan x="0" y="0"> </tspan></text>
    <text class="d" transform="translate(126.08 100.08) rotate(121.33)"><tspan x="0" y="0">N</tspan></text>
    <text class="d" transform="translate(117.65 113.67) rotate(140.07)"><tspan x="0" y="0">o</tspan></text>
    <text class="d" transform="translate(107.55 121.65) rotate(150.99)"><tspan x="0" y="0"> </tspan></text>
    <text class="d" transform="translate(104.48 124.17) rotate(163.63)"><tspan x="0" y="0">H</tspan></text>
    <text class="d" transform="translate(89.92 128.31) rotate(-178.81)"><tspan x="0" y="0">u</tspan></text>
    <text class="d" transform="translate(78.09 127.9) rotate(-166.2)"><tspan x="0" y="0">r</tspan></text>
    <text class="d" transform="translate(70.69 126.14) rotate(-156.24)"><tspan x="0" y="0">r</tspan></text>
    <text class="d" transform="translate(63.39 123.12) rotate(-144.04)"><tspan x="0" y="0">y</tspan></text>
    <text class="d" transform="translate(55.13 116.91) rotate(-133.68)"><tspan x="0" y="0">!</tspan></text>
  </g>
</svg>