<svg width="1172" height="496" viewBox="0 0 1172 496" fill="none" xmlns="http://www.w3.org/2000/svg">
<path d="M61.9638 490.698V306.376H89.3172V490.698H61.9638ZM0 311.944V287.442H151.281V311.944H0Z" fill="black"/>
<path d="M257.009 495.71C238.588 495.71 223.05 492.183 210.397 485.129C197.93 477.89 188.44 467.867 181.927 455.059C175.6 442.065 172.437 427.03 172.437 409.953V287.442H199.79V413.294C199.79 424.617 201.93 434.64 206.21 443.364C210.676 451.903 217.189 458.585 225.748 463.412C234.308 468.238 244.728 470.651 257.009 470.651C269.29 470.651 279.618 468.331 287.991 463.69C296.551 458.864 302.97 452.182 307.25 443.643C311.716 434.919 313.949 424.802 313.949 413.294V287.442H341.302V409.953C341.302 427.03 338.139 442.065 331.812 455.059C325.486 467.867 316.089 477.89 303.622 485.129C291.155 492.183 275.617 495.71 257.009 495.71Z" fill="black"/>
<path d="M385.42 490.698V287.442H430.079L533.631 466.196H542.563L536.98 471.208V287.442H563.217V490.698H518L414.448 311.944H405.516L411.099 306.933V490.698H385.42Z" fill="black"/>
<path d="M611.123 490.698V287.442H638.476V490.698H611.123ZM632.894 490.698V466.196H731.701V490.698H632.894ZM632.894 399.651V375.149H723.048V399.651H632.894ZM632.894 311.944V287.442H728.91V311.944H632.894Z" fill="black"/>
<path d="M831.289 495.71C814.355 495.71 799.934 492.925 788.025 487.357C776.117 481.788 766.999 474.085 760.672 464.247C754.346 454.409 751.182 443.272 751.182 430.835H778.536C778.536 436.961 780.117 443.086 783.281 449.212C786.63 455.337 792.119 460.442 799.748 464.525C807.564 468.609 818.077 470.651 831.289 470.651C843.57 470.651 853.618 468.887 861.433 465.361C869.248 461.648 875.017 456.915 878.738 451.161C882.46 445.221 884.321 438.817 884.321 431.949C884.321 423.596 880.692 416.728 873.435 411.345C866.178 405.776 855.572 402.342 841.616 401.043L819.007 399.094C800.958 397.609 786.537 392.04 775.745 382.388C764.952 372.736 759.556 360.02 759.556 344.243C759.556 331.806 762.533 320.947 768.487 311.666C774.628 302.385 783.095 295.146 793.887 289.948C804.68 284.565 817.24 281.874 831.568 281.874C845.709 281.874 858.177 284.472 868.969 289.67C879.762 294.867 888.135 302.199 894.09 311.666C900.23 320.947 903.301 332.084 903.301 345.078H875.947C875.947 338.581 874.366 332.456 871.202 326.701C868.225 320.947 863.48 316.214 856.967 312.501C850.454 308.789 841.988 306.933 831.568 306.933C821.519 306.933 813.146 308.696 806.447 312.223C799.935 315.75 795.003 320.39 791.654 326.145C788.491 331.713 786.909 337.746 786.909 344.243C786.909 351.667 789.793 358.257 795.562 364.011C801.33 369.766 809.89 373.107 821.24 374.035L843.849 375.984C857.805 377.098 869.807 380.068 879.855 384.894C890.089 389.534 897.904 395.845 903.301 403.827C908.883 411.623 911.674 420.997 911.674 431.949C911.674 444.385 908.325 455.43 901.626 465.082C894.927 474.735 885.53 482.252 873.435 487.635C861.34 493.018 847.291 495.71 831.289 495.71Z" fill="black"/>
<circle cx="1124.79" cy="47.0097" r="47.0097" fill="#240188"/>
<path d="M102.414 253.434C83.8102 253.434 67.9039 250.169 54.6952 243.639C41.6725 237.109 31.1614 228.62 23.1617 218.172C15.1621 207.724 9.3019 196.437 5.58114 184.31C1.86038 171.996 0 160.149 0 148.768V142.611C0 130.297 1.86038 117.984 5.58114 105.67C9.48794 93.3563 15.4412 82.162 23.4408 72.0872C31.4404 62.0123 41.8586 53.8965 54.6952 47.7397C67.5318 41.5828 82.88 38.5044 100.74 38.5044C118.971 38.5044 134.599 41.6761 147.621 48.0195C160.644 54.3629 170.969 63.225 178.597 74.6059C186.224 85.9867 190.875 99.4198 192.549 114.905H164.644C163.155 103.338 159.435 93.8227 153.481 86.3598C147.528 78.7104 139.994 73.02 130.878 69.2886C121.948 65.5572 111.902 63.6915 100.74 63.6915C88.6472 63.6915 78.043 65.837 68.9271 70.1282C59.8112 74.2327 52.1837 80.1097 46.0444 87.7591C40.0912 95.222 35.5333 103.898 32.3706 113.786C29.394 123.674 27.9057 134.402 27.9057 145.969C27.9057 156.977 29.394 167.425 32.3706 177.313C35.5333 187.201 40.1842 195.97 46.3235 203.62C52.6488 211.269 60.4624 217.333 69.7643 221.81C79.0662 226.102 89.9494 228.247 102.414 228.247C119.902 228.247 134.599 223.863 146.505 215.094C158.411 206.325 165.667 193.638 168.271 177.033H196.177C194.317 191.026 189.573 203.806 181.945 215.374C174.504 226.941 164.086 236.176 150.691 243.079C137.482 249.983 121.39 253.434 102.414 253.434Z" fill="black"/>
<path d="M201.218 248.397L274.61 44.1015H320.933L396.558 248.397H368.373L300.004 62.0123L313.399 68.7289H280.47L294.702 62.0123L228.565 248.397H201.218ZM245.03 187.388L254.238 162.761H342.141L351.35 187.388H245.03Z" fill="black"/>
<path d="M446.842 248.397V63.1318H474.19V248.397H446.842ZM384.892 68.7289V44.1015H536.141V68.7289H384.892Z" fill="black"/>
<path d="M643.937 253.434C625.334 253.434 609.427 250.169 596.219 243.639C583.196 237.109 572.685 228.62 564.685 218.172C556.686 207.724 550.825 196.437 547.105 184.31C543.384 171.996 541.523 160.149 541.523 148.768V142.611C541.523 130.297 543.384 117.984 547.105 105.67C551.011 93.3563 556.965 82.162 564.964 72.0872C572.964 62.0123 583.382 53.8965 596.219 47.7397C609.055 41.5828 624.403 38.5044 642.263 38.5044C660.495 38.5044 676.122 41.6761 689.145 48.0195C702.167 54.3629 712.492 63.225 720.12 74.6059C727.748 85.9867 732.398 99.4198 734.073 114.905H706.167C704.679 103.338 700.958 93.8227 695.005 86.3598C689.052 78.7104 681.517 73.02 672.401 69.2886C663.471 65.5572 653.425 63.6915 642.263 63.6915C630.171 63.6915 619.566 65.837 610.451 70.1282C601.335 74.2327 593.707 80.1097 587.568 87.7591C581.615 95.222 577.057 103.898 573.894 113.786C570.917 123.674 569.429 134.402 569.429 145.969C569.429 156.977 570.917 167.425 573.894 177.313C577.057 187.201 581.708 195.97 587.847 203.62C594.172 211.269 601.986 217.333 611.288 221.81C620.59 226.102 631.473 228.247 643.937 228.247C661.425 228.247 676.122 223.863 688.028 215.094C699.935 206.325 707.19 193.638 709.795 177.033H737.701C735.84 191.026 731.096 203.806 723.469 215.374C716.027 226.941 705.609 236.176 692.214 243.079C679.006 249.983 662.913 253.434 643.937 253.434Z" fill="black"/>
<path d="M903.997 248.397V44.1015H931.344V248.397H903.997ZM766.143 248.397V44.1015H793.49V248.397H766.143ZM787.909 159.123V134.495H909.578V159.123H787.909Z" fill="black"/>
<path d="M1018.89 168.918L954.146 44.1015H982.61L1037.31 151.007L1026.7 147.928H1059.63L1048.47 151.007L1099.81 44.1015H1126.6L1065.77 168.918H1018.89ZM1028.93 248.397V163.32H1055.72V248.397H1028.93Z" fill="black"/>
<path fill-rule="evenodd" clip-rule="evenodd" d="M1086.13 73.7027L1100.27 44.3293H1127.08L1104.94 89.6455C1097.34 86.0935 1090.85 80.5572 1086.13 73.7027Z" fill="#EF0000"/>
</svg>
